<svg class="svg-icon" transform="rotate(90)" style="width: 20px; height: 20px;vertical-align: middle;fill: currentColor;overflow: hidden;" viewBox="0 0 1024 1024" version="1.1" xmlns="http://www.w3.org/2000/svg"><path d="M707.73067 394.023164L80.350865 393.629674a78.697918 78.697918 0 0 1 0-157.395837H752.116296L650.989471 134.398731a78.697918 78.697918 0 0 1 0-111.278857 77.753543 77.753543 0 0 1 110.649273 0l234.598495 236.093755c7.240208 7.240208 6.925417 22.901094 16.920053 25.655522s7.869792 109.154013 7.869791 109.154013z m-391.600841 236.093755l627.379805 0.393489a78.697918 78.697918 0 0 1 0 157.395837H271.744203l101.126825 101.835106a78.697918 78.697918 0 0 1 0 111.278857 77.753543 77.753543 0 0 1-110.649273 0l-234.598495-236.093755c-7.240208-7.240208-6.925417-22.901094-16.920052-25.655522s-7.869792-109.154013-7.869792-109.154012z" fill="#faebd7" /></svg>